<svg xmlns="http://www.w3.org/2000/svg" viewBox="111 270.5 393.2 300.5"><path d="M274.8 301c-6.2 0-15.8-11.4-26.2-6-3 1.4-20.4 19-22 21.8-3.5 6.4-.7 11.4 2 16.8 2.4 4.7 6 10.6 2 14-1 .7-3 1-4 1.6-10.3 3.6-19.2 5-19.2 17.7v20c0 13 9 14 18.8 17.5 5.8 2.2 8.4 3.4 4.5 11l-2 4.7c-2.8 5.4-5.5 10.2-2.2 16.6.6 1.2 2.2 3 3.3 4l14.6 14.7c1 1 2.8 2.5 4 3.2 6.3 3.4 11.3.6 16.8-2 1.6-1 3-1.4 4.6-2.3 9.4-4.7 9.7.2 14.2 13.4 2.3 6.8 7 10 14.4 10h20.2c20 0 13-25 23.5-25 2 0 3.7 1 5 1.7l4.8 2.2c7.7 3.7 13.5 6 20.8-1.3 3.2-3.2 16.2-15.6 17.8-18.5 3.5-6.6.7-11.5-2-17-1-2-4-7.7-4-9.6 0-4.4 3-5 6.2-6l9-3.2c6.7-2.3 10-7 10-14.4v-20c0-7.5-3.3-12.2-10-14.5l-8.8-3c-5.7-2.4-8.4-3.5-4.5-11.2 2.4-4.6 5.7-11 5.7-15.5 0-6.7-7.2-12.2-12.2-17.2-6.3-6.3-10-12-18.2-12-3 0-11.2 4-14.5 5.7-7.2 3.7-8.5 1.5-11-4.3l-3-9.2c-2.2-6.6-7-10-14.3-10h-20.2c-13 0-14 9-17.6 18.8-1.3 3.3-1.7 6.3-6 6.3l-.2.4z"/><path fill="#FFF" d="M344.5 318.3c4.6 3 8.8 6.2 12.6 10 12.7 12.5 20.4 29.7 20.4 48.7s-7.7 36.2-20.2 48.6c-8.3 8.4-19 14.7-30.7 17.8v-8.8c9.5-3 18-8 24.8-15 11-11 17.8-26 17.8-42.6 0-16.7-6.7-31.8-17.6-42.7-2-2-4-4-6.5-5.7l-.5-10.3zm-54 125c-11.7-3-22.3-9.3-30.7-17.7-12.5-12.4-20.2-29.6-20.2-48.6s7.7-36.2 20.2-48.7c4-4 8.8-7.7 13.8-10.7v10c-2.8 2-5.4 4.3-7.8 6.7-11 11-17.7 26-17.7 42.7 0 16.6 7 31.7 18 42.6 7 7 15.2 12 24.7 15l-.2 8.7z"/><path fill="#FFF" d="M307.7 365.8c-4 1.7-12.8 7-21 12.3-7 4.6-13.7 8.7-17 10.3v6.5l38-10.2v-18.8zm-21.4 11.8c8.6-5.3 17.7-11 21.6-12.4l.2-.2v20h-.2l-38.6 10.3h-.4V388l.2-.2c3.3-1.5 10-5.7 17-10.2zm21.4-45.2C302.5 337 291 351 282 362l-10 11.7c-2.7 3-2.7 3.2-2.5 6v3c6.7-3.4 15-9 22.6-14.3 6.3-4.2 12-8 15.8-10v-26zm-26.2 29c9.2-11 21.3-25.5 26.3-29.8l.5-.4v27.3l-.2.2c-3.7 2-9.3 6-15.4 10.2-7.8 5-16.3 11-23 14.4l-.5.2v-3.9c-.2-3-.2-3.3 2.7-6.5 2-2.2 5.6-6.6 10-11.8h-.2zm26.2 30.6l-38 8.5v6.3l38 3.7V392zm-38.4 8l38.6-8.7h.2V411h-.3l-38.8-3.7h-.3V400h.3zm-25-16.5c-.5-2.2-.7-4.3-.8-6.5h20.8v6.6h-20zm3 11.8c-.8-2.2-1.5-4.5-2-6.8h19.3v6.8h-17.3zM253 407c-1.3-2-2.6-4.4-3.7-6.8h15.2v7L253 407zm120.5-30c-.2 2.2-.4 4.3-.8 6.5h-21V377h21.8zm-1.8 11.5l-2 6.8h-18.2v-6.8h20.2zm-4 11.7c-1 2.4-2.5 4.7-3.8 7h-12.5v-7h16zm-58.4-34.8c7 2.6 31.4 19.3 38.7 22.6v7l-38.7-10.3v-19.3zm0-33.6c7.3 6.3 29.8 34.6 36.2 41.7 3.6 4 2.5 3.2 2.5 9.8-12-6.3-30-20-38.7-24.8v-26.7zm0 59.8l38.6 8.7v6.7l-38.8 3.8v-19.2zm53 18l-2.8 3.7h-8v-3.6h10.7zm-105 3.7c-1-1-1.7-2.4-2.6-3.6h9.8v3.6h-7zm50.4 1.7l-38-5v3l38 8.8V415zm-38.3-5.5l38.6 5h.3v8h-.4l-38.8-9h-.3v-4h.4zm40 5.3l38.5-5v3.5L309 422V415z"/><path d="M140.2 517.8v-29.3h18v6.5H148v5h9.6v6.3H148v5h10.2v6.5h-18zm22.8 0v-20.2h6.5v4c1-1.5 2-2.7 3.3-3.5 1.2-.5 2.7-1 4.4-1 1.3 0 2.5.3 3.5.7 1 .4 2 1 2.5 1.8.5.7 1 1.5 1 2.5.4 1 .5 2.3.5 4.3v11.5h-7V507c0-1.6-.4-2.8-1-3.5-.5-.8-1.3-1-2.5-1-1.4 0-2.5.4-3.2 1.5-.7 1-1 3-1 5.3v8.5h-7zm42-10c0-1.7-.3-3-1-3.8-1-1-2-1.3-3.6-1.3-1.5 0-2.6.4-3.5 1.3-1 1-1.4 2-1.4 3.7 0 1.5.4 2.7 1.2 3.6.8 1 2 1.4 3.4 1.4 1.5 0 2.6-.5 3.5-1.4.7-1 1-2 1-3.6h.3zm6.4-10.2v20.2c0 3-1 5.3-2.8 6.8-2 1.4-4.7 2.2-8.6 2.2-3.2 0-5.7-.6-7.4-1.8-1.8-1.2-2.8-2.8-3-5h7.5c.3.7.7 1.2 1 1.5.8.4 1.6.6 2.6.6 1.5 0 2.6-.2 3.2-1 .5-.7.8-2.3.8-4.6v-2c-.7 1.4-1.7 2.3-2.8 3-1.2.6-2.6 1-4.2 1-2.6 0-4.8-1-6.4-3-1.5-2-2.3-4.5-2.3-7.7 0-3.3.7-5.8 2.4-7.8s4-3 6.8-3c1.5 0 2.8.4 4 1 1 .6 2 1.6 2.8 3v-3.3h6.4zm19.3 7.5c0-1-.6-2-1.3-2.5-.8-.7-1.7-1-2.7-1-1.2 0-2 .2-2.8 1-1 .5-1.4 1.5-1.6 2.7h8.3zm7 4h-15.4c0 1.8.5 3 1.2 3.8.8 1 2 1.3 3.4 1.3 1 0 2 0 2.5-.5.8-.4 1.3-1 1.7-1.8l5.4 2.2c-.7 1.4-1.8 2.6-3.4 3.4-1.6 1-3.6 1.3-6 1.3-3.5 0-6.4-1-8.5-3-2-2-3.2-4.5-3.2-7.7s1-5.8 3.2-8c2-2 4.8-3 8-3 3.4 0 6 1 8 3 2 2.2 3 5 3 8.8v.3zm4 9v-20.3h6.6v4c1-1.5 2-2.7 3.3-3.5 1.2-.6 2.7-1 4.5-1 1.5 0 2.6.2 3.7.6 1 .4 1.8 1 2.4 1.8.7.7 1 1.5 1.3 2.5.2 1 .3 2.4.3 4.4V518h-7v-11c0-1.6-.4-2.8-1-3.5-.4-.8-1.3-1-2.4-1-1.4 0-2.5.4-3.2 1.5-.6 1-1 3-1 5.3v8.5h-7.3zm27 0v-31h7v11l-.2 2c0 .4 0 1-.2 1.5 1-1.6 2-2.7 3.2-3.4 1.2-.6 2.6-1 4.3-1 1.3 0 2.5.3 3.5.7 1 .4 2 1 2.5 1.8.5.7 1 1.5 1 2.5.4 1 .5 2.3.5 4.3v11.5H283V507c0-1.6 0-2.8-.6-3.5-.6-.8-1.4-1-2.6-1-1.5 0-2.5.4-3.2 1.5-.7 1-1 3-1 5.3v8.5h-7zm42-10c0-1.8-.4-3-1.2-4-1-1-2-1.3-3.5-1.3-1.4 0-2.6.4-3.4 1.4-.8 1-1.3 2-1.3 3.8 0 1.6.5 2.8 1.3 3.7.8 1 2 1.4 3.4 1.4 1.5 0 2.6-.6 3.5-1.5.8-1 1.2-2 1.2-3.7zm6.3-10.3V518h-6.6v-3.3c-1 1.4-2 2.4-3 3-1.3.7-2.7 1-4.2 1-2.7 0-5-1-6.5-3-1.6-2-2.4-4.6-2.4-8 0-3.2.8-5.8 2.5-7.7 1.7-2 4-3 6.8-3 1.6 0 3 .3 4 1 1 .6 2 1.6 2.8 3v-3.4h6.6zm5.4 20.2v-20.3h6.7v4.8c1-1.8 2-3 3-4 1.3-.8 2.7-1.2 4.4-1.2h1.8l-.6 6.6-1.3-.4h-1c-1.8 0-3.2.4-4 1.5-1 1-1.5 2.6-1.5 4.6v8.3h-7.4zm18-26.6c0-1 .5-2 1.3-2.7.7-.8 1.7-1.2 2.7-1.2 1.2 0 2 .4 2.8 1 .8 1 1.2 1.8 1.2 3 0 1-.4 2-1.2 2.7-.7 1-1.7 1.3-2.8 1.3-1 0-2-.4-2.7-1.2-.8-.7-1.2-1.6-1.2-2.7v-.2zm.5 26.5v-20.3h7V518h-7zm28-10c0-1.8-.7-3-1.5-4s-2-1.3-3.4-1.3-2.5.4-3.4 1.4c-.8 1-1.2 2-1.2 3.8 0 1.6.4 2.8 1.2 3.7 1 1 2 1.4 3.5 1.4s2.7-.6 3.5-1.5c.8-1 1.3-2 1.3-3.7zm6-10.3V518h-6.5v-3.3c-1 1.4-2 2.4-3.2 3-1 .7-2.5 1-4 1-2.8 0-5-1-6.5-3-1.8-2-2.6-4.6-2.6-8 0-3.2 1-5.8 2.6-7.7 1.7-2 4-3 6.8-3 1.5 0 2.8.3 4 1 1 .6 2 1.6 2.7 3v-3.4h6.6zm40-8v8.8c-1-1.2-2-2-3.3-2.7-1-.5-2.3-.8-3.5-.8-2.3 0-4.2.7-5.6 2.2-1.4 1.6-2 3.6-2 6.2 0 2.3.6 4.3 2 5.8 1.5 1.5 3.4 2.3 5.6 2.3 1.2 0 2.4-.3 3.5-.8 1-.6 2.2-1.5 3.3-2.7v8.7c-1.2.6-2.5 1-3.7 1.4-1.3.5-2.5.7-3.8.7-1.6 0-3-.2-4.4-.6-1.2-.3-2.4-1-3.6-1.6-2.2-1.5-3.8-3.3-5-5.6-1-2.2-1.7-4.7-1.7-7.5 0-2.2.4-4.3 1-6 .8-2 2-3.6 3.4-5 1.5-1.5 3-2.6 4.8-3.3 1.7-.8 3.6-1.2 5.8-1.2 1.3 0 2.5.2 3.8.5 1.2.3 2.5.8 3.8 1.4h-.3zm4 1.7c0-1 .2-2 1-2.7.7-.8 1.7-1.2 2.7-1.2 1.2 0 2 .4 2.8 1 .8 1 1.2 1.8 1.2 3 0 1-.4 2-1.2 2.7-.7 1-1.7 1.3-2.8 1.3-1 0-2-.4-2.7-1.2-.7-.7-1-1.6-1-2.7v-.2zm.2 26.5v-20.3h7V518h-7zm18.7 0l-9-20.3h7.4l3.4 9v.3c.5 1 .8 2 1 2.7 0-.6.2-1.5.7-2.6l.2-.4 3.3-9h7.4l-9.2 20.3H438zm16.7-26.6c0-1 .4-2 1.2-2.7.6-.8 1.6-1.2 2.6-1.2 1.2 0 2 .4 2.8 1 .8 1 1.2 1.8 1.2 3 0 1-.4 2-1.2 2.7-.7 1-1.7 1.3-2.8 1.3-1 0-2-.4-2.7-1.2-1-.7-1.3-1.6-1.3-2.7v-.2zm.4 26.5v-20.3h7V518h-7zm13 0v-31h7v31h-7zM116 530.5h383v2H116l.2-2zm86 18c-1-1-2-2-3.3-2.6-1.4-.6-2.7-.8-4-.8-1.4 0-2.5.2-3.6.7-1 .2-2 1-3 2-.8.6-1.4 1.6-1.8 2.7-.5 1-.7 2.3-.7 3.6 0 1 0 2 .3 3l1 2.3c1 1.2 2 2.2 3.4 3 1.3.6 2.7 1 4.2 1s2.7-.4 4-1c1-.5 2.2-1.4 3.2-2.6v3.6c-1 .8-2.3 1.4-3.5 1.8-1.3.4-2.6.6-4 .6-1.2 0-2.3 0-3.4-.5-1-.3-2.2-.8-3-1.5-1.8-1-3-2.5-4-4-.7-1.8-1-3.6-1-5.6 0-1.7 0-3.2.7-4.6.7-1.4 1.6-2.7 2.7-3.8 1.2-1 2.4-2 3.8-2.5s3-.8 4.5-.8c1.3 0 2.5.2 3.7.6 1.3.4 2.4 1 3.6 1.8v3.5zm14 8.3c0-1.4-.3-2.3-1-3-.7-.7-1.7-1-3-1-1.2 0-2 .4-3 1-.7.7-1 1.7-1.2 2.8h8.3zm2.8 2h-11c0 1.5.4 2.7 1.3 3.6.8 1 2 1.4 3.3 1.4 1 0 1.7-.2 2.5-.7 1-.5 1.6-1.3 2-2.3l2 1.2c-.7 1.3-1.6 2.3-2.7 3-1 .5-2.3.8-3.7.8-2.2 0-4-.7-5.2-2-1.3-1.5-2-3.3-2-5.5s.7-4 2-5.4c1.3-1.2 3-2 5-2s3.7.8 5 2c1 1.4 1.7 3 1.7 5.5v.4zm3.6 6.4v-14h2.3v2.2c.4-1 1-1.6 2-2 1-.4 2-.6 3-.6 1.5 0 3 .5 3.7 1.4 1 .8 1.4 2 1.4 3.6v9.5h-2.3v-8.2c0-1.4-.3-2.5-1-3.2-.5-.4-1.4-1-2.7-1-.6 0-1.2.3-1.8.6l-1.5 1-.6 1.3v9.6l-2.4-.2zm17.7-12h-2.6v-2h2.6V546h2.4v5.6h2.5v2h-2.5v12h-2.4v-12.2zm7.7 12v-14h2v3c.7-1.3 1.4-2 2-2.6.8-.7 1.7-1 2.7-1 .3 0 .6 0 1 .2 0 0 .4 0 .6.2l-.7 2h-.8l-.7-.2c-1 0-2 .5-2.6 1.4-.7 1-1 2.3-1 4v7H248zm12.2-7c0 1.5.5 2.8 1.5 3.8s2.2 1.5 3.6 1.5 2.5-.5 3.5-1.5 1.5-2.3 1.5-3.7c0-1.5-.5-2.8-1.5-3.8s-2-1.5-3.5-1.5c-1.4 0-2.6.5-3.6 1.5s-1.5 2.3-1.5 3.8zm-2.5 0c0-1 .2-2 .6-3 .4-.8 1-1.6 1.6-2.3.5-.6 1.3-1 2.3-1.5s1.8-.5 3-.5c1 0 1.8.2 2.8.6 1 .4 1.8 1 2.5 1.7s1.3 1.5 1.7 2.4c.3 1 .5 1.8.5 2.8s-.2 2-.5 3c-.4.8-1 1.6-1.7 2.3s-1.5 1.3-2.5 1.7c-.8.3-1.7.5-2.7.5s-2-.2-3-.5c-1-.4-1.7-1-2.4-1.7-1-.7-1.4-1.5-1.8-2.4-.4-1-.6-1.8-.6-3zM293 548l-3.6 8.3h7L293 548zm0-5.7l10 23h-2.8l-3-6.8h-8.6l-3 7H283l10-23.2zm22.8 19.8v2.8l-2 .8-2.7.2c-2 0-3.7-.6-5-2-1.3-1.4-2-3-2-5.4 0-2.2.7-4 2-5.4 1.5-1.4 3-2 5.3-2h2.3l2 .8v2.6l-2-1-1.8-.2c-1.6 0-2.8.4-3.8 1.4s-1.5 2.3-1.5 4c0 1.3.5 2.5 1.4 3.5 1 1 2 1.5 3.4 1.5.7 0 1.4 0 2-.3.8-.3 1.5-.7 2.3-1.2zm14-3.5c0-1.5-.5-2.8-1.4-3.7-.8-1-2-1.6-3.3-1.6-1.3 0-2.4.5-3.2 1.3-.8 1-1.2 2.2-1.2 3.7 0 1.7.4 3 1.2 4 .8.8 2 1.3 3.5 1.3 1.4 0 2.5-.5 3.3-1.3.8-1 1.2-2.2 1.2-3.8zm2.2-7v14h-2.3v-2.7c-.6 1-1.3 1.7-2 2.2-1 .6-2 .8-3 .8-2 0-3.6-.6-5-2-1-1.4-1.7-3.2-1.7-5.5 0-2.2.6-4 1.8-5.4 1.2-1.4 2.8-2 4.7-2 1.2 0 2.2.2 3 .7 1 .6 1.6 1.3 2 2.4v-2.5h2.5zm15.4 7c0-1.6-.4-2.8-1.3-3.8-.7-1-2-1.4-3.2-1.4-1.4 0-2.5.5-3.3 1.3-.8 1-1.2 2-1.2 3.6 0 1.7.4 3 1.2 4 .8 1 2 1.4 3.3 1.4 1.5 0 2.6-.4 3.4-1.3 1-1 1.4-2.2 1.4-3.8h-.2zm2.3-16.7v23.5h-2.3V563c-.6 1-1.3 1.7-2 2.2-1 .6-2 .8-3 .8-2 0-3.7-.6-5-2-1-1.4-1.7-3.2-1.7-5.5 0-2.2.6-4 1.8-5.4 1.2-1.2 2.8-2 4.8-2 1 0 2 .4 3 1 .8.5 1.5 1.2 2 2.3V542l2.4-.2zm14.7 15c0-1.3-.5-2.2-1.2-3-.8-.6-1.8-1-3-1s-2.2.5-3 1.2c-.7.6-1.2 1.6-1.3 2.7h8.4zm2.5 2h-11c0 1.6.2 2.8 1 3.7 1 1 2 1.4 3.4 1.4 1 0 1.8-.3 2.5-.8s1.4-1.3 2-2.3l1.7 1c-.7 1.4-1.6 2.4-2.6 3-1 .6-2.3 1-3.7 1-2 0-3.8-.8-5-2-1.4-1.6-2-3.4-2-5.6 0-2.2.6-4 2-5.4 1-1.3 2.8-2 4.8-2s3.8.7 5 2c1 1.3 1.8 3 1.8 5.4v.4zm-11.5-9.6l3-5.3h3l3 5.3h-2l-2.5-3.5-2.6 3.4h-2zm34.2 16v-8c0-1.5-.2-2.6-.8-3.3-.7-.6-1.5-1-2.7-1-.7 0-1.2 0-1.8.4l-1.4 1-.4 1.4c-.2.4-.2 1.2-.2 2.3v7.3H380V557c0-1.3-.2-2.4-1-3-.3-.6-1.2-1-2.4-1-.6 0-1.2 0-1.8.4l-1.5 1-.5 1.3-.2 2.5v7.2h-2.3v-14h2.3v2.2c.6-1 1.3-1.6 2-2 1-.4 1.8-.6 3-.6 1 0 2 .3 2.7.8.8.5 1.4 1.2 1.8 2 .7-1 1.4-1.6 2-2 1-.5 2-.7 3-.7 1.6 0 2.8.6 3.7 1.5.8.8 1.2 2 1.2 3.6v9.6l-2.3-.4zm6.6-20.5c0-.6.2-1 .5-1.4.3-.3.7-.5 1.2-.5s1 .3 1.2.7c.3.3.5.7.5 1.2 0 .4-.3.8-.6 1-.2.4-.6.6-1 .6s-1-.2-1.4-.5c-.4-.2-.6-.6-.6-1h.3zm.6 20.5v-14h2.3v14H397zm18-3.3v2.6l-2 .8-2.7.2c-2.2 0-4-.6-5.2-2-1.2-1.4-2-3-2-5.4 0-2.2.8-4 2-5.4 1.5-1.4 3.3-2 5.4-2h2.2l2 .8v2.6c-.5-.4-1-.7-1.8-1l-2-.2c-1.6 0-3 .4-3.8 1.4-1 1-1.4 2.3-1.4 4 0 1.3.5 2.5 1.4 3.5 1 1 2 1.3 3.6 1.3.7 0 1.4 0 2-.3.8-.3 1.5-.7 2.3-1.2zm4.7-3.7c0 1.4.4 2.7 1.4 3.7s2.3 1.5 3.7 1.5c1.4 0 2.6-.5 3.5-1.5 1-1 1.5-2.3 1.5-3.7 0-1.5-.5-2.8-1.5-3.8s-2-1.5-3.5-1.5c-1.4 0-2.6.5-3.6 1.5s-1.3 2.3-1.3 3.8zm-2.6 0c0-1 .3-2 .7-3 .4-1 1-1.7 1.6-2.4.8-.8 1.6-1.3 2.5-1.7.8-.4 1.8-.5 2.8-.5s2 .2 3 .6c.8.4 1.6 1 2.3 1.7 1 .8 1.3 1.6 1.7 2.5.4 1 .5 1.8.5 2.8s0 2-.5 3c-.4.8-1 1.6-1.7 2.3-.6.7-1.4 1.3-2.3 1.7-1 .3-2 .5-3 .5s-2-.2-2.8-.5c-1-.4-2-1-2.7-1.7-.7-.7-1.2-1.5-1.6-2.4-.4-1-.6-1.8-.6-3z"/><path fill="#FFF" d="M300.7 444H294l4-4.5.4-.8c.2-.2.2-.4.2-.6 0 0 0-.4-.3-.6-.2-.2-.4-.2-.7-.2-.4 0-.7.2-1 .4l-.2 1h-2c0-1 .2-1.7.8-2.2.6-.6 1.3-1 2.3-1s1.8.4 2.4 1c.3.4.6 1 .6 2 0 .3 0 .7-.2 1-.2.4-.5 1-1 1.3l-1.5 1.8h2.6v1.5zm7.8-4c0 1.3-.3 2.4-1 3.2-.5.7-1.3 1-2.3 1s-1.8-.3-2.4-1c-.6-1-1-2-1-3.4s.4-2.5 1-3.3c.6-.8 1.4-1.2 2.4-1.2s1.8.4 2.4 1.2 1 2 1 3.4zm-4.4-.2c0 1 .3 1.7.4 2 .2.5.5.8 1 .8.3 0 .5-.3.7-.7.3-.6.4-1.3.4-2.3s0-1.6-.3-2c0-.5-.3-.7-.7-.7-.4 0-.7.3-1 .7v2h-.2zm8 4.3v-6.4h-2l1-2h3v8.6h-2zm8.5-4c-.4 0-.7 0-1 .4-.2.2-.3.6-.3 1s.2.7.4 1c.3.2.6.3 1 .3s.7 0 1-.3c.2-.3.3-.6.3-1s0-.8-.5-1c-.2-.2-.5-.4-1-.4zm0-1.3h.3c.2-.2.3-.2.5-.2.7 0 1.3.3 1.8.8s.8 1.2.8 2c0 1-.3 1.7-1 2.3-.5.5-1.3.8-2.3.8s-1.8-.3-2.4-.8c-.5-.6-1-1.4-1-2.3 0-.5.3-1 .5-1.5.2-.6.6-1.3 1.3-2.3l1.2-2h2.3l-1.8 3.2zm-35-123.7v3l-1-.6H283c-.7.4-1.3.8-1.8 1.5-.5.5-.7 1.3-.7 2 0 1 .2 1.5.7 2 .5.3 1 .3 1.8 0 .4 0 .8-.2 1-.6.5-.3.8-.7 1.2-1.2v3l-1.2.8c-.4.4-.8.6-1.3.7l-1.5.3c-.4 0-.8 0-1.2-.2-.7-.3-1.3-.7-1.6-1.4-.4-.6-.6-1.4-.6-2.4 0-.7.2-1.5.5-2.2.2-.7.6-1.4 1-2 .5-.7 1-1.2 1.6-1.6.5-.4 1-.8 2-1l1-.2h1.3zm4 5l2.7-.4-1-3.2-.2-.4c0-.2 0-.5-.2-.8v.7c-.2 0-.2.3-.3.5l-1 3.5zm-3.8 4.5l3.4-10.7 3.6-.6 3.4 9.4-2.8.5-.5-1.5-3.8.7-.7 2-2.6.3zm11.2-2v-10l6-.5v2.2l-3.6.4v1.7l3.3-.3v2l-3.3.4v1.7h3.5v2l-6 .5zm15-10v3c-.4-.6-.8-1-1-1l-1.4-.3c-.8 0-1.4.2-2 .8-.4.5-.6 1.2-.6 2s.3 1.5.8 2c.5.6 1.2.8 2 .8.4 0 .8 0 1-.3.5 0 1-.4 1.2-1v3l-1.2.6c-.5.3-1 .3-1.3.3-.6 0-1 0-1.6-.2-.6 0-1-.2-1.4-.4-.8-.5-1.4-1.2-1.7-2-.5-.7-.7-1.6-.7-2.5 0-.7 0-1.4.3-2 .3-.6.7-1.2 1.2-1.7.3-.5 1-1 1.5-1 .6-.3 1.2-.5 2-.5.4 0 .8 0 1.3.2.4 0 .8.2 1.2.4zm1.6 7.2v-2.2l4.6.4v2l-4.6-.3zm6.6 3v-10l2.8.2v10l-2.8-.3zm5 .5v-10l6 1.3v2.2l-3.4-.7v1.7l3 .7v2l-3-.6v4l-2.6-.6zm12-.4v-2l5 1.8v.6c0 1.7-.5 3-1.4 3.5-1 .6-2 .6-3.7 0l-2-1-1.4-1.8-1-2.3c-.3-.8-.4-1.5-.4-2.2 0-.8 0-1.4.3-2 .3-.5.6-1 1-1.2.5-.3 1-.5 1.7-.5.6 0 1.2 0 2 .3 1 .4 1.7 1 2.4 1.6.7.7 1.3 1.5 1.7 2.4l-2.2.3c0-.5-.4-1-1-1.2 0-.2-.4-.5-1-.6-.6-.3-1.2-.3-1.7 0-.4.5-.6 1-.6 2s0 2 .5 2.6c.5.7 1 1.2 1.8 1.5.7.2 1.2.3 1.7 0 .4 0 .6-.4.7-1l-2.2-.7z"/></svg>